name rise31.4854peak64.571fall78.6902.mot
datacolumns 19
datarows 66
range 0.000000 0.108335
endheader
time	ground_force1_vx	ground_force1_vy	ground_force1_vz	ground_force1_px	ground_force1_py	ground_force1_pz	ground_force2_vx	ground_force2_vy	ground_force2_vz	ground_force2_px	ground_force2_py	ground_force2_pz	ground_torque1_x	ground_torque1_y	ground_torque1_z	ground_torque2_x	ground_torque2_y	ground_torque2_z	
0.000000	0.000000	0.000000	0.000000	0.000000	0.000000	0.000000	66.623035	789.912423	-49.431812	0.323136	0.000000	-0.087872	0.000000	0.000000	0.000000	0.000000	-11.477793	0.000000	
0.001671	0.000000	0.000000	0.000000	0.000000	0.000000	0.000000	65.896764	788.316301	-49.366154	0.322403	0.000000	-0.087740	0.000000	0.000000	0.000000	0.000000	-11.715250	0.000000	
0.003338	0.000000	0.000000	0.000000	0.000000	0.000000	0.000000	65.176824	786.733713	-49.301021	0.321623	0.000000	-0.087608	0.000000	0.000000	0.000000	0.000000	-11.947857	0.000000	
0.005004	0.000000	0.000000	0.000000	0.000000	0.000000	0.000000	64.461482	785.157779	-49.235723	0.320794	0.000000	-0.087478	0.000000	0.000000	0.000000	0.000000	-12.175457	0.000000	
0.006672	0.000000	0.000000	0.000000	0.000000	0.000000	0.000000	63.748079	783.579527	-49.169471	0.319917	0.000000	-0.087348	0.000000	0.000000	0.000000	0.000000	-12.398215	0.000000	
0.008335	0.000000	0.000000	0.000000	0.000000	0.000000	0.000000	63.033395	781.988826	-49.101439	0.318990	0.000000	-0.087220	0.000000	0.000000	0.000000	0.000000	-12.616524	0.000000	
0.010001	0.000000	0.000000	0.000000	0.000000	0.000000	0.000000	62.313989	780.375275	-49.030815	0.318013	0.000000	-0.087093	0.000000	0.000000	0.000000	0.000000	-12.830910	0.000000	
0.011672	0.000000	0.000000	0.000000	0.000000	0.000000	0.000000	61.586513	778.728988	-48.956842	0.316987	0.000000	-0.086968	0.000000	0.000000	0.000000	0.000000	-13.041944	0.000000	
0.013338	0.000000	0.000000	0.000000	0.000000	0.000000	0.000000	60.847965	777.041216	-48.878859	0.315912	0.000000	-0.086845	0.000000	0.000000	0.000000	0.000000	-13.250165	0.000000	
0.015001	0.000000	0.000000	0.000000	0.000000	0.000000	0.000000	60.095877	775.304806	-48.796323	0.314787	0.000000	-0.086723	0.000000	0.000000	0.000000	0.000000	-13.456022	0.000000	
0.016665	0.000000	0.000000	0.000000	0.000000	0.000000	0.000000	59.328442	773.514477	-48.708817	0.313613	0.000000	-0.086605	0.000000	0.000000	0.000000	0.000000	-13.659832	0.000000	
0.018331	0.000000	0.000000	0.000000	0.000000	0.000000	0.000000	58.544566	771.666926	-48.616060	0.312391	0.000000	-0.086488	0.000000	0.000000	0.000000	0.000000	-13.861755	0.000000	
0.020001	0.000000	0.000000	0.000000	0.000000	0.000000	0.000000	57.743865	769.760793	-48.517896	0.311120	0.000000	-0.086374	0.000000	0.000000	0.000000	0.000000	-14.061788	0.000000	
0.021673	0.000000	0.000000	0.000000	0.000000	0.000000	0.000000	56.926622	767.796496	-48.414281	0.309803	0.000000	-0.086263	0.000000	0.000000	0.000000	0.000000	-14.259772	0.000000	
0.023339	0.000000	0.000000	0.000000	0.000000	0.000000	0.000000	56.093696	765.775994	-48.305272	0.308439	0.000000	-0.086155	0.000000	0.000000	0.000000	0.000000	-14.455410	0.000000	
0.025001	0.000000	0.000000	0.000000	0.000000	0.000000	0.000000	55.246418	763.702487	-48.190999	0.307031	0.000000	-0.086051	0.000000	0.000000	0.000000	0.000000	-14.648290	0.000000	
0.026664	0.000000	0.000000	0.000000	0.000000	0.000000	0.000000	54.386469	761.580098	-48.071651	0.305579	0.000000	-0.085949	0.000000	0.000000	0.000000	0.000000	-14.837918	0.000000	
0.028332	0.000000	0.000000	0.000000	0.000000	0.000000	0.000000	53.515765	759.413558	-47.947452	0.304084	0.000000	-0.085850	0.000000	0.000000	0.000000	0.000000	-15.023747	0.000000	
0.030004	0.000000	0.000000	0.000000	0.000000	0.000000	0.000000	52.636341	757.207924	-47.818650	0.302550	0.000000	-0.085755	0.000000	0.000000	0.000000	0.000000	-15.205209	0.000000	
0.031667	0.000000	0.000000	0.000000	0.000000	0.000000	0.000000	51.750260	754.968327	-47.685496	0.300976	0.000000	-0.085664	0.000000	0.000000	0.000000	0.000000	-15.381742	0.000000	
0.033334	0.000000	0.000000	0.000000	0.000000	0.000000	0.000000	50.859531	752.699784	-47.548238	0.299367	0.000000	-0.085575	0.000000	0.000000	0.000000	0.000000	-15.552811	0.000000	
0.035001	0.000000	0.000000	0.000000	0.000000	0.000000	0.000000	49.966051	750.407052	-47.407112	0.297723	0.000000	-0.085491	0.000000	0.000000	0.000000	0.000000	-15.717929	0.000000	
0.036669	0.000000	0.000000	0.000000	0.000000	0.000000	0.000000	49.071571	748.094546	-47.262337	0.296047	0.000000	-0.085409	0.000000	0.000000	0.000000	0.000000	-15.876669	0.000000	
0.038334	0.000000	0.000000	0.000000	0.000000	0.000000	0.000000	48.177674	745.766298	-47.114117	0.294341	0.000000	-0.085332	0.000000	0.000000	0.000000	0.000000	-16.028668	0.000000	
0.040005	0.000000	0.000000	0.000000	0.000000	0.000000	0.000000	47.285776	743.425961	-46.962639	0.292609	0.000000	-0.085257	0.000000	0.000000	0.000000	0.000000	-16.173632	0.000000	
0.041668	0.000000	0.000000	0.000000	0.000000	0.000000	0.000000	46.397130	741.076845	-46.808076	0.290854	0.000000	-0.085186	0.000000	0.000000	0.000000	0.000000	-16.311334	0.000000	
0.043335	0.000000	0.000000	0.000000	0.000000	0.000000	0.000000	45.512853	738.721969	-46.650596	0.289077	0.000000	-0.085119	0.000000	0.000000	0.000000	0.000000	-16.441612	0.000000	
0.045006	0.000000	0.000000	0.000000	0.000000	0.000000	0.000000	44.633947	736.364136	-46.490359	0.287283	0.000000	-0.085054	0.000000	0.000000	0.000000	0.000000	-16.564357	0.000000	
0.046668	0.000000	0.000000	0.000000	0.000000	0.000000	0.000000	43.761324	734.006001	-46.327528	0.285475	0.000000	-0.084993	0.000000	0.000000	0.000000	0.000000	-16.679510	0.000000	
0.048331	0.000000	0.000000	0.000000	0.000000	0.000000	0.000000	42.895838	731.650146	-46.162271	0.283655	0.000000	-0.084935	0.000000	0.000000	0.000000	0.000000	-16.787051	0.000000	
0.050006	0.000000	0.000000	0.000000	0.000000	0.000000	0.000000	42.038305	729.299136	-45.994765	0.281829	0.000000	-0.084879	0.000000	0.000000	0.000000	0.000000	-16.886994	0.000000	
0.051667	0.000000	0.000000	0.000000	0.000000	0.000000	0.000000	41.189525	726.955572	-45.825195	0.279998	0.000000	-0.084826	0.000000	0.000000	0.000000	0.000000	-16.979378	0.000000	
0.053332	0.000000	0.000000	0.000000	0.000000	0.000000	0.000000	40.350293	724.622125	-45.653762	0.278168	0.000000	-0.084776	0.000000	0.000000	0.000000	0.000000	-17.064262	0.000000	
0.054997	0.000000	0.000000	0.000000	0.000000	0.000000	0.000000	39.521412	722.301556	-45.480679	0.276341	0.000000	-0.084727	0.000000	0.000000	0.000000	0.000000	-17.141717	0.000000	
0.056666	0.000000	0.000000	0.000000	0.000000	0.000000	0.000000	38.703695	719.996723	-45.306173	0.274521	0.000000	-0.084681	0.000000	0.000000	0.000000	0.000000	-17.211831	0.000000	
0.058331	0.000000	0.000000	0.000000	0.000000	0.000000	0.000000	37.897962	717.710575	-45.130483	0.272713	0.000000	-0.084637	0.000000	0.000000	0.000000	0.000000	-17.274698	0.000000	
0.060005	0.000000	0.000000	0.000000	0.000000	0.000000	0.000000	37.105038	715.446133	-44.953857	0.270920	0.000000	-0.084594	0.000000	0.000000	0.000000	0.000000	-17.330422	0.000000	
0.061668	0.000000	0.000000	0.000000	0.000000	0.000000	0.000000	36.325741	713.206472	-44.776552	0.269146	0.000000	-0.084552	0.000000	0.000000	0.000000	0.000000	-17.379118	0.000000	
0.063334	0.000000	0.000000	0.000000	0.000000	0.000000	0.000000	35.560876	710.994689	-44.598833	0.267395	0.000000	-0.084512	0.000000	0.000000	0.000000	0.000000	-17.420908	0.000000	
0.064999	0.000000	0.000000	0.000000	0.000000	0.000000	0.000000	34.811221	708.813873	-44.420963	0.265670	0.000000	-0.084472	0.000000	0.000000	0.000000	0.000000	-17.455929	0.000000	
0.066673	0.000000	0.000000	0.000000	0.000000	0.000000	0.000000	34.077517	706.667077	-44.243212	0.263975	0.000000	-0.084433	0.000000	0.000000	0.000000	0.000000	-17.484327	0.000000	
0.068335	0.000000	0.000000	0.000000	0.000000	0.000000	0.000000	33.360456	704.557292	-44.065843	0.262314	0.000000	-0.084394	0.000000	0.000000	0.000000	0.000000	-17.506264	0.000000	
0.070004	0.000000	0.000000	0.000000	0.000000	0.000000	0.000000	32.660675	702.487416	-43.889119	0.260689	0.000000	-0.084356	0.000000	0.000000	0.000000	0.000000	-17.521914	0.000000	
0.071669	0.000000	0.000000	0.000000	0.000000	0.000000	0.000000	31.978742	700.460243	-43.713294	0.259105	0.000000	-0.084316	0.000000	0.000000	0.000000	0.000000	-17.531469	0.000000	
0.073333	0.000000	0.000000	0.000000	0.000000	0.000000	0.000000	31.315156	698.478437	-43.538617	0.257565	0.000000	-0.084277	0.000000	0.000000	0.000000	0.000000	-17.535136	0.000000	
0.075003	0.000000	0.000000	0.000000	0.000000	0.000000	0.000000	30.670338	696.544533	-43.365327	0.256070	0.000000	-0.084236	0.000000	0.000000	0.000000	0.000000	-17.533136	0.000000	
0.076665	0.000000	0.000000	0.000000	0.000000	0.000000	0.000000	30.044631	694.660919	-43.193653	0.254625	0.000000	-0.084195	0.000000	0.000000	0.000000	0.000000	-17.525707	0.000000	
0.078334	0.000000	0.000000	0.000000	0.000000	0.000000	0.000000	29.438296	692.829840	-43.023813	0.253231	0.000000	-0.084152	0.000000	0.000000	0.000000	0.000000	-17.513102	0.000000	
0.079999	0.000000	0.000000	0.000000	0.000000	0.000000	0.000000	28.851516	691.053400	-42.856015	0.251891	0.000000	-0.084107	0.000000	0.000000	0.000000	0.000000	-17.495585	0.000000	
0.081673	0.000000	0.000000	0.000000	0.000000	0.000000	0.000000	28.284392	689.333557	-42.690452	0.250607	0.000000	-0.084061	0.000000	0.000000	0.000000	0.000000	-17.473431	0.000000	
0.083337	0.000000	0.000000	0.000000	0.000000	0.000000	0.000000	27.736947	687.672136	-42.527308	0.249380	0.000000	-0.084013	0.000000	0.000000	0.000000	0.000000	-17.446929	0.000000	
0.084999	0.000000	0.000000	0.000000	0.000000	0.000000	0.000000	27.209131	686.070828	-42.366753	0.248212	0.000000	-0.083962	0.000000	0.000000	0.000000	0.000000	-17.416374	0.000000	
0.086682	0.000000	0.000000	0.000000	0.000000	0.000000	0.000000	26.700819	684.531199	-42.208942	0.247104	0.000000	-0.083909	0.000000	0.000000	0.000000	0.000000	-17.382068	0.000000	
0.088346	0.000000	0.000000	0.000000	0.000000	0.000000	0.000000	26.211814	683.054697	-42.054021	0.246057	0.000000	-0.083854	0.000000	0.000000	0.000000	0.000000	-17.344318	0.000000	
0.090006	0.000000	0.000000	0.000000	0.000000	0.000000	0.000000	25.741854	681.642654	-41.902119	0.245071	0.000000	-0.083796	0.000000	0.000000	0.000000	0.000000	-17.303436	0.000000	
0.091672	0.000000	0.000000	0.000000	0.000000	0.000000	0.000000	25.290609	680.296290	-41.753355	0.244146	0.000000	-0.083735	0.000000	0.000000	0.000000	0.000000	-17.259736	0.000000	
0.093335	0.000000	0.000000	0.000000	0.000000	0.000000	0.000000	24.857686	679.016724	-41.607832	0.243282	0.000000	-0.083671	0.000000	0.000000	0.000000	0.000000	-17.213532	0.000000	
0.094998	0.000000	0.000000	0.000000	0.000000	0.000000	0.000000	24.442631	677.804968	-41.465641	0.242479	0.000000	-0.083604	0.000000	0.000000	0.000000	0.000000	-17.165140	0.000000	
0.096671	0.000000	0.000000	0.000000	0.000000	0.000000	0.000000	24.044931	676.661936	-41.326861	0.241735	0.000000	-0.083535	0.000000	0.000000	0.000000	0.000000	-17.114875	0.000000	
0.098340	0.000000	0.000000	0.000000	0.000000	0.000000	0.000000	23.664015	675.588445	-41.191556	0.241050	0.000000	-0.083462	0.000000	0.000000	0.000000	0.000000	-17.063046	0.000000	
0.100002	0.000000	0.000000	0.000000	0.000000	0.000000	0.000000	23.299258	674.585215	-41.059780	0.240422	0.000000	-0.083386	0.000000	0.000000	0.000000	0.000000	-17.009966	0.000000	
0.101670	0.000000	0.000000	0.000000	0.000000	0.000000	0.000000	22.949982	673.652874	-40.931571	0.239849	0.000000	-0.083307	0.000000	0.000000	0.000000	0.000000	-16.955938	0.000000	
0.103335	0.000000	0.000000	0.000000	0.000000	0.000000	0.000000	22.615457	672.791957	-40.806959	0.239328	0.000000	-0.083225	0.000000	0.000000	0.000000	0.000000	-16.901266	0.000000	
0.105002	0.000000	0.000000	0.000000	0.000000	0.000000	0.000000	22.294905	672.002909	-40.685960	0.238858	0.000000	-0.083141	0.000000	0.000000	0.000000	0.000000	-16.846247	0.000000	
0.106672	0.000000	0.000000	0.000000	0.000000	0.000000	0.000000	21.987504	671.286088	-40.568582	0.238436	0.000000	-0.083053	0.000000	0.000000	0.000000	0.000000	-16.791173	0.000000	
0.108335	0.000000	0.000000	0.000000	0.000000	0.000000	0.000000	21.692388	670.641768	-40.454820	0.238058	0.000000	-0.082963	0.000000	0.000000	0.000000	0.000000	-16.736332	0.000000	
